<svg width="29" height="29" viewBox="0 0 29 29" fill="none" xmlns="http://www.w3.org/2000/svg">
<path fill-rule="evenodd" clip-rule="evenodd" d="M5.16663 5.16668C5.16663 3.87801 6.21129 2.83334 7.49996 2.83334H21.5C22.7886 2.83334 23.8333 3.87801 23.8333 5.16668V25C23.8333 25.437 23.5891 25.8374 23.2005 26.0374C22.8119 26.2373 22.3441 26.2034 21.9885 25.9494L14.5 20.6004L7.0114 25.9494C6.65579 26.2034 6.18803 26.2373 5.79945 26.0374C5.41086 25.8374 5.16663 25.437 5.16663 25V5.16668ZM21.5 5.16668L7.49996 5.16668V22.733L13.8218 18.2173C14.2275 17.9276 14.7724 17.9276 15.1781 18.2173L21.5 22.733V5.16668Z" fill="#A9A7A7"/>
</svg>
