<svg width="24" height="24" viewBox="0 0 24 24" fill="none" xmlns="http://www.w3.org/2000/svg">
<path d="M5.57088 7.88709C5.28438 6.00009 6.61488 4.30509 8.64738 3.68409C9.00806 3.57381 9.39722 3.6052 9.73556 3.77187C10.0739 3.93853 10.336 4.22792 10.4684 4.58109L11.1209 6.32109C11.2259 6.60101 11.2449 6.90593 11.1754 7.19672C11.1059 7.48751 10.9511 7.7509 10.7309 7.95309L8.78988 9.73059C8.6942 9.81839 8.62291 9.92948 8.58295 10.053C8.54299 10.1766 8.53573 10.3084 8.56188 10.4356L8.57988 10.5136L8.62638 10.7086C8.86777 11.6561 9.23557 12.5667 9.71988 13.4161C10.2474 14.3186 10.9022 15.1406 11.6639 15.8566L11.7239 15.9106C11.8208 15.9966 11.9383 16.056 12.065 16.0831C12.1917 16.1102 12.3233 16.104 12.4469 16.0651L14.9564 15.2746C15.2416 15.185 15.547 15.1828 15.8335 15.268C16.12 15.3533 16.3745 15.5222 16.5644 15.7531L17.7524 17.1946C18.2474 17.7946 18.1874 18.6766 17.6189 19.2061C16.0634 20.6566 13.9244 20.9536 12.4364 19.7581C10.6124 18.2868 9.07481 16.4924 7.90038 14.4646C6.71641 12.4383 5.92557 10.2067 5.56938 7.88709H5.57088ZM10.1354 10.5346L11.7434 9.05859C12.1841 8.65439 12.494 8.12769 12.6333 7.5461C12.7725 6.96451 12.7348 6.35457 12.5249 5.79459L11.8739 4.05459C11.6074 3.34396 11.08 2.76168 10.3991 2.4264C9.71822 2.09111 8.93513 2.02806 8.20938 2.25009C5.68488 3.02259 3.65838 5.28609 4.08738 8.11359C4.38738 10.0876 5.07888 12.5986 6.60438 15.2206C7.87144 17.4071 9.53006 19.3419 11.4974 20.9281C13.7294 22.7206 16.7084 22.1086 18.6434 20.3056C19.7924 19.2346 19.9094 17.4556 18.9119 16.2436L17.7239 14.8006C17.3438 14.3393 16.8347 14.0021 16.2617 13.8321C15.6887 13.6621 15.078 13.6672 14.5079 13.8466L12.4244 14.5021C11.8864 13.9474 11.4152 13.3318 11.0204 12.6676C10.639 11.9961 10.3417 11.2802 10.1354 10.5361V10.5346Z" fill="#4E4E4E"/>
</svg>
