<svg width="20" height="20" viewBox="0 0 20 20" fill="none" xmlns="http://www.w3.org/2000/svg">
<path d="M18.9161 7.56399C18.9689 7.44391 18.9975 7.31459 19.0003 7.18344C19.0031 7.05228 18.9801 6.92186 18.9324 6.79963C18.8848 6.6774 18.8135 6.56577 18.7227 6.47111C18.6318 6.37645 18.5232 6.30063 18.4031 6.24799L5.32806 0.491987C4.33306 0.0539871 3.10806 0.542987 2.68306 1.53399L0.473061 6.68799C0.265149 7.17551 0.259149 7.72561 0.456377 8.21756C0.653605 8.7095 1.03795 9.10311 1.52506 9.31199L7.56306 11.9L6.32306 15H2.00006V12H6.10352e-05V20H2.00006V17H6.32306C7.14606 17 7.87506 16.506 8.17906 15.742L9.40106 12.688L14.6061 14.918C14.8485 15.022 15.1221 15.026 15.3675 14.9292C15.6129 14.8324 15.81 14.6425 15.9161 14.401L16.2281 13.691L17.9291 14.371L19.9291 9.37099L18.3931 8.75799L18.9161 7.56399ZM14.4821 12.69L2.31306 7.47499L4.52106 2.32299L16.6831 7.67699L14.4821 12.69Z" fill="#25283D"/>
</svg>
