<svg width="11" height="11" viewBox="0 0 11 11" fill="none" xmlns="http://www.w3.org/2000/svg">
<g clip-path="url(#clip0_54_287)">
<path d="M5.3125 -1.52588e-05C2.38319 -1.52588e-05 0 2.38317 0 5.31248C0 8.2418 2.38319 10.625 5.3125 10.625C8.24181 10.625 10.625 8.2418 10.625 5.31248C10.625 2.38317 8.24181 -1.52588e-05 5.3125 -1.52588e-05ZM5.3125 9.56248C2.96916 9.56248 1.0625 7.65583 1.0625 5.31248C1.0625 2.96914 2.96916 1.06248 5.3125 1.06248C7.65584 1.06248 9.5625 2.96914 9.5625 5.31248C9.5625 7.65583 7.65584 9.56248 5.3125 9.56248Z" fill="#FBFBFB"/>
<path d="M5.84375 2.65622H4.78125V5.53241L6.53066 7.28181L7.28184 6.53063L5.84375 5.09253V2.65622Z" fill="#FBFBFB"/>
</g>
<defs>
<clipPath id="clip0_54_287">
<rect width="10.625" height="10.625" fill="white"/>
</clipPath>
</defs>
</svg>
