<svg width="23" height="23" viewBox="0 0 23 23" fill="none" xmlns="http://www.w3.org/2000/svg">
<path d="M5.03129 18.6875H17.9688C18.2419 18.6876 18.5049 18.7914 18.7045 18.9778C18.9041 19.1643 19.0255 19.4196 19.0441 19.6921C19.0627 19.9647 18.9772 20.2341 18.8048 20.446C18.6324 20.6579 18.386 20.7965 18.1154 20.8337L17.9688 20.8438H5.03129C4.75813 20.8437 4.49518 20.7399 4.29559 20.5534C4.09599 20.3669 3.97462 20.1116 3.956 19.8391C3.93738 19.5666 4.0229 19.2972 4.19528 19.0853C4.36767 18.8734 4.61405 18.7348 4.88466 18.6976L5.03129 18.6875H17.9688H5.03129ZM11.3534 1.44756L11.5 1.4375C11.7606 1.43751 12.0123 1.53186 12.2086 1.7031C12.405 1.87434 12.5327 2.11089 12.5681 2.369L12.5782 2.51562V13.5671L15.8197 10.327C16.0025 10.1443 16.2449 10.0333 16.5027 10.0143C16.7605 9.99527 17.0165 10.0695 17.2242 10.2235L17.3449 10.327C17.5277 10.5098 17.6386 10.7522 17.6576 11.01C17.6766 11.2678 17.6024 11.5238 17.4484 11.7314L17.3449 11.8522L12.2619 16.9337C12.0794 17.1163 11.8374 17.2274 11.5799 17.2466C11.3224 17.2659 11.0666 17.1921 10.8589 17.0387L10.7382 16.9337L5.65516 11.8522C5.46226 11.6598 5.34934 11.4015 5.3391 11.1293C5.32886 10.8571 5.42207 10.591 5.59998 10.3847C5.77789 10.1784 6.02731 10.0471 6.2981 10.0172C6.56888 9.98727 6.84095 10.061 7.0596 10.2235L7.18035 10.327L10.4219 13.57V2.51562C10.4219 2.2551 10.5163 2.00338 10.6875 1.80704C10.8588 1.61069 11.0953 1.48299 11.3534 1.44756L11.5 1.4375L11.3534 1.44756Z" fill="#E4E4E9"/>
</svg>
