<svg width="103" height="78" fill="none" xmlns="http://www.w3.org/2000/svg">
  <path stroke="url(#a)" stroke-width="3.013" d="M61.894 23.409v53.373"/>
  <path stroke="url(#b)" stroke-width="2.222" stroke-linecap="round" d="M56.356 75.671h10.887"/>
  <path d="M10.481 53.185c2.075 0 3.665.514 4.77 1.542 1.123 1.009 1.685 2.456 1.685 4.34 0 1.467-.343 2.762-1.029 3.885-.685 1.104-1.656 1.97-2.913 2.599-1.256.609-2.703.914-4.34.914h-1.4l.2 5.226h-5.74l.285-5.426-.285-13.052 8.767-.028Zm-1.028 9.281c.514-.285.885-.647 1.114-1.085.247-.457.371-1.038.371-1.742 0-.838-.2-1.447-.6-1.828-.4-.4-1.028-.618-1.885-.657l-1.028.086-.114 5.112 2.142.114Zm14.405-4.598c1.752 0 3.104.362 4.056 1.086.952.704 1.428 1.723 1.428 3.055 0 .381-.038 1.39-.114 3.028a103.467 103.467 0 0 0-.115 2.427c0 .21.029.362.086.457a.38.38 0 0 0 .314.143c.133 0 .295-.029.486-.086l.342.286-.485 2.856c-.705.495-1.59.78-2.656.857a2.655 2.655 0 0 1-1.485-.572c-.419-.342-.743-.828-.971-1.456h-.2c-.838.97-1.79 1.656-2.856 2.056-1.447-.019-2.608-.419-3.484-1.2-.857-.799-1.285-1.884-1.285-3.255 0-2.114 1.094-3.322 3.284-3.627l4.055-.543v-.342c0-.495-.104-.848-.314-1.057-.19-.21-.533-.314-1.028-.314-1.066 0-2.447.457-4.141 1.37l-.343-.228-.6-3.513a12.333 12.333 0 0 1 2.885-1.056 13.864 13.864 0 0 1 3.142-.372Zm-1.227 8.168c-.267.038-.467.143-.6.314-.114.153-.172.39-.172.714 0 .762.353 1.143 1.057 1.143.457 0 .904-.152 1.342-.457v-1.942l-1.627.228Zm18.366-7.854c.247 0 .466.02.657.058v4.997l-.543.172c-.248-.152-.59-.229-1.028-.229-.419 0-.866.096-1.342.286-.457.19-.886.457-1.286.8v1.428l.229 5.997h-5.57l.258-5.426-.2-7.74 5.283-.371v2.513h.257c.82-1.656 1.914-2.485 3.285-2.485Zm11.898 5.998c.895 1.828 2.104 4.027 3.627 6.597l-.029.571c-1.237.248-2.98.476-5.226.686l-.571-.286a44.287 44.287 0 0 1-2.856-6.369v.315l.228 5.997H42.5l.257-5.426-.2-14.251 5.54-.372-.228 12.224 2.17-4.056.6-1.599h5.684l-3.427 5.969Z" fill="url(#c)"/>
  <path d="m83.264 65.752.357.454-.39 4.74H68.43l.324-6.168-.324-14.835h15.06l.357.455-.422 4.74-5.16-.196h-3.344l-.065 2.954h3.213l3.376-.097.357.454-.39 4.74-3.765-.098h-2.921l-.032 1.234.064 1.818h3.117l5.388-.195Zm18.379-11.167-8.927 11.556h5.226l3.993-.292.195.292-.52 4.967-5.778-.163h-7.466l-3.278.195v-4.642l9.089-11.75H89.08l-3.895.324-.227-.26.454-4.966 4.87.098h8.894l2.467-.033v4.674Z" fill="url(#d)"/>
  <circle cx="62.268" cy="16.386" r="16.386" fill="url(#e)"/>
  <circle cx="62.268" cy="16.386" r="13.239" fill="url(#f)" stroke="url(#g)" stroke-width=".395"/>
  <path d="M60.553 18.386v5.186H56.87V8.287h6.099c1.168 0 2.2.217 3.096.65.903.428 1.6 1.04 2.09 1.838.496.79.745 1.69.745 2.698 0 1.49-.536 2.684-1.606 3.58-1.064.888-2.527 1.333-4.388 1.333h-2.352Zm0-2.845h2.415c.713 0 1.256-.179 1.627-.536.378-.356.567-.86.567-1.511 0-.714-.193-1.284-.578-1.711-.385-.427-.91-.644-1.574-.651h-2.457v4.409Z" fill="#FBFBFB"/>
  <defs>
    <linearGradient id="a" x1="60.25" y1="23.409" x2="43.894" y2="28.282" gradientUnits="userSpaceOnUse">
      <stop stop-color="#613EEA"/>
      <stop offset="1" stop-color="#576DEE"/>
    </linearGradient>
    <linearGradient id="b" x1="55.245" y1="76.919" x2="63.986" y2="84.124" gradientUnits="userSpaceOnUse">
      <stop stop-color="#613EEA"/>
      <stop offset="1" stop-color="#576DEE"/>
    </linearGradient>
    <linearGradient id="c" x1="0" y1="52.611" x2="62.967" y2="60.53" gradientUnits="userSpaceOnUse">
      <stop stop-color="#613EEA"/>
      <stop offset="1" stop-color="#576DEE"/>
    </linearGradient>
    <linearGradient id="d" x1="66.482" y1="49.401" x2="107.172" y2="52.279" gradientUnits="userSpaceOnUse">
      <stop stop-color="#613EEA"/>
      <stop offset="1" stop-color="#576DEE"/>
    </linearGradient>
    <linearGradient id="e" x1="45.882" y1="4.498" x2="82.437" y2="6.797" gradientUnits="userSpaceOnUse">
      <stop stop-color="#613EEA"/>
      <stop offset="1" stop-color="#576DEE"/>
    </linearGradient>
    <linearGradient id="f" x1="48.831" y1="6.638" x2="78.807" y2="8.523" gradientUnits="userSpaceOnUse">
      <stop stop-color="#613EEA"/>
      <stop offset="1" stop-color="#576DEE"/>
    </linearGradient>
    <linearGradient id="g" x1="48.831" y1="6.638" x2="78.807" y2="8.523" gradientUnits="userSpaceOnUse">
      <stop stop-color="#613EEA"/>
      <stop offset="1" stop-color="#576DEE"/>
    </linearGradient>
  </defs>
</svg>
