<svg width="25" height="31" viewBox="0 0 25 31" fill="none" xmlns="http://www.w3.org/2000/svg">
<path d="M12.5 16.9167C14.8472 16.9167 16.75 15.0139 16.75 12.6667C16.75 10.3195 14.8472 8.41669 12.5 8.41669C10.1528 8.41669 8.25 10.3195 8.25 12.6667C8.25 15.0139 10.1528 16.9167 12.5 16.9167Z" stroke="#25283D" stroke-width="2" stroke-linecap="round" stroke-linejoin="round"/>
<path d="M12.5 1.33334C9.49417 1.33334 6.61149 2.52739 4.48608 4.6528C2.36067 6.77821 1.16663 9.66089 1.16663 12.6667C1.16663 15.347 1.73613 17.1008 3.29163 19.0417L12.5 29.6667L21.7083 19.0417C23.2638 17.1008 23.8333 15.347 23.8333 12.6667C23.8333 9.66089 22.6392 6.77821 20.5138 4.6528C18.3884 2.52739 15.5057 1.33334 12.5 1.33334V1.33334Z" stroke="#25283D" stroke-width="2" stroke-linecap="round" stroke-linejoin="round"/>
</svg>
