<svg width="21" height="23" viewBox="0 0 21 23" fill="none" xmlns="http://www.w3.org/2000/svg">
<path d="M10.5 0.833344C9.34628 0.833344 8.21846 1.17546 7.25917 1.81644C6.29989 2.45741 5.55221 3.36845 5.1107 4.43436C4.66919 5.50026 4.55367 6.67315 4.77875 7.8047C5.00383 8.93626 5.5594 9.97566 6.37521 10.7915C7.19102 11.6073 8.23042 12.1628 9.36197 12.3879C10.4935 12.613 11.6664 12.4975 12.7323 12.056C13.7982 11.6145 14.7093 10.8668 15.3502 9.9075C15.9912 8.94822 16.3333 7.8204 16.3333 6.66668C16.3333 5.11958 15.7188 3.63585 14.6248 2.54189C13.5308 1.44793 12.0471 0.833344 10.5 0.833344V0.833344ZM10.5 10.1667C9.80777 10.1667 9.13108 9.9614 8.5555 9.57682C7.97993 9.19223 7.53133 8.64561 7.26642 8.00607C7.00151 7.36653 6.9322 6.66279 7.06725 5.98386C7.2023 5.30493 7.53564 4.68129 8.02513 4.1918C8.51461 3.70232 9.13825 3.36898 9.81718 3.23393C10.4961 3.09888 11.1999 3.16819 11.8394 3.4331C12.4789 3.69801 13.0256 4.14661 13.4101 4.72218C13.7947 5.29775 14 5.97444 14 6.66668C14 7.59493 13.6313 8.48517 12.9749 9.14155C12.3185 9.79793 11.4283 10.1667 10.5 10.1667V10.1667ZM21 23V21.8333C21 19.6674 20.1396 17.5902 18.608 16.0586C17.0765 14.5271 14.9993 13.6667 12.8333 13.6667H8.16667C6.00073 13.6667 3.92351 14.5271 2.39196 16.0586C0.860414 17.5902 0 19.6674 0 21.8333V23H2.33333V21.8333C2.33333 20.2862 2.94791 18.8025 4.04188 17.7086C5.13584 16.6146 6.61957 16 8.16667 16H12.8333C14.3804 16 15.8642 16.6146 16.9581 17.7086C18.0521 18.8025 18.6667 20.2862 18.6667 21.8333V23H21Z" fill="#4E4E4E"/>
</svg>
