<svg width="29" height="29" viewBox="0 0 29 29" fill="none" xmlns="http://www.w3.org/2000/svg">
<path fill-rule="evenodd" clip-rule="evenodd" d="M2.83337 7.49999C2.83337 6.21133 3.87804 5.16666 5.16671 5.16666H23.8334C25.122 5.16666 26.1667 6.21133 26.1667 7.49999V20.3333C26.1667 21.622 25.122 22.6667 23.8334 22.6667H18.4833L15.325 25.8249C14.8694 26.2806 14.1307 26.2806 13.6751 25.8249L10.5168 22.6667H5.16671C3.87804 22.6667 2.83337 21.622 2.83337 20.3333V7.49999ZM23.8334 7.49999H5.16671V20.3333H11C11.3095 20.3333 11.6062 20.4562 11.825 20.675L14.5 23.3501L17.1751 20.675C17.3939 20.4562 17.6906 20.3333 18 20.3333H23.8334V7.49999Z" fill="#AAA7A7"/>
</svg>
