<svg width="41" height="41" viewBox="0 0 41 41" fill="none" xmlns="http://www.w3.org/2000/svg">
<path d="M27.7475 23.7329C26.9607 23.7329 26.2345 23.9864 25.6658 24.4099L19.9451 20.6091C20.0409 20.1262 20.0409 19.6314 19.9451 19.1486L25.6658 15.3478C26.2345 15.7712 26.9607 16.0248 27.7475 16.0248C29.5753 16.0248 31.0607 14.6606 31.0607 12.9821C31.0607 11.3036 29.5753 9.93942 27.7475 9.93942C25.9198 9.93942 24.4344 11.3036 24.4344 12.9821C24.4344 13.2762 24.4786 13.5577 24.5642 13.8264L19.1306 17.4396C18.3244 16.4583 17.0434 15.8219 15.5994 15.8219C13.1587 15.8219 11.1819 17.6374 11.1819 19.8788C11.1819 22.1203 13.1587 23.9357 15.5994 23.9357C17.0434 23.9357 18.3244 23.2993 19.1306 22.318L24.5642 25.9312C24.4786 26.2 24.4344 26.4839 24.4344 26.7755C24.4344 28.4541 25.9198 29.8182 27.7475 29.8182C29.5753 29.8182 31.0607 28.4541 31.0607 26.7755C31.0607 25.097 29.5753 23.7329 27.7475 23.7329ZM27.7475 11.6636C28.5399 11.6636 29.1832 12.2544 29.1832 12.9821C29.1832 13.7098 28.5399 14.3006 27.7475 14.3006C26.9552 14.3006 26.3119 13.7098 26.3119 12.9821C26.3119 12.2544 26.9552 11.6636 27.7475 11.6636ZM15.5994 22.1101C14.2603 22.1101 13.1698 21.1086 13.1698 19.8788C13.1698 18.6491 14.2603 17.6475 15.5994 17.6475C16.9385 17.6475 18.029 18.6491 18.029 19.8788C18.029 21.1086 16.9385 22.1101 15.5994 22.1101ZM27.7475 28.094C26.9552 28.094 26.3119 27.5032 26.3119 26.7755C26.3119 26.0478 26.9552 25.457 27.7475 25.457C28.5399 25.457 29.1832 26.0478 29.1832 26.7755C29.1832 27.5032 28.5399 28.094 27.7475 28.094Z" fill="#A9A7A7"/>
</svg>
